<?xml version="1.0" encoding="utf-8"?>
<svg xmlns="http://www.w3.org/2000/svg" viewBox="0 0 283.46 283.46">
  <defs>
    <style>.cls-1{fill:#1d1d1b;}</style>
  </defs>
  <title>Train</title>
  <g id="Calque_2" data-name="Calque 2">
    <g id="Livello_1" data-name="Livello 1">
      <path class="cls-1" d="M219.69,283.46H63.78A63.78,63.78,0,0,1,0,219.69V63.78A63.79,63.79,0,0,1,63.78,0H219.69a63.78,63.78,0,0,1,63.77,63.78V219.69A63.77,63.77,0,0,1,219.69,283.46ZM265,219.69V63.78a45.35,45.35,0,0,0-45.35-45.35H63.78A45.35,45.35,0,0,0,18.43,63.78V219.69A45.35,45.35,0,0,0,63.78,265H219.69A45.36,45.36,0,0,0,265,219.69Z"/>
      <path class="cls-1" d="M183.87,204.6a13.27,13.27,0,0,0,1.67-1.29c5.09-4.13,9.85-10.45,13.31-20.25,4.83-13.73,8.24-26,9.18-41.12,1.31-18.6-6.35-47.53-11.43-61l-1.77-4.75c-1.09-3-5.26-9.47-12.65-17.18-6.36-6.62-12.47-7.11-21.77-7.11H122.65c-9.3,0-15.4.49-21.77,7.11-7.4,7.68-11.57,14.15-12.65,17.18l-1.78,4.78C81.37,94.41,73.72,123.34,75,142c.94,15.06,4.36,27.31,9.21,41.09,3.45,9.82,8.2,16.12,13.3,20.25a16.88,16.88,0,0,0,1.69,1.27l-27.5,30.58a6.87,6.87,0,0,0,0,9,5.31,5.31,0,0,0,8.06,0l9.5-10.54H193.8l9.48,10.54a5.32,5.32,0,0,0,8.07,0,6.89,6.89,0,0,0,0-9Zm-9.23-11.15a9.44,9.44,0,1,1,9.45-9.45,9.46,9.46,0,0,1-9.45,9.45M89.16,132.9c-5.77,0,3.3-50.66,7.43-50.66h88.85c4.49,0,15,50.66,8,50.66ZM98.78,184a9.45,9.45,0,1,1,9.45,9.45A9.44,9.44,0,0,1,98.78,184m1.92,36.9,10.12-11.25a55.65,55.65,0,0,0,12.8,1.13h35.82a55.57,55.57,0,0,0,12.79-1.13l10.13,11.25Z"/>
    </g>
  </g>
</svg>