<svg xmlns="http://www.w3.org/2000/svg" viewBox="0 0 283.46 283.46"><defs><style>.cls-1{fill:#1d1d1b;}</style></defs><title>Bus</title><g id="Calque_2" data-name="Calque 2"><g id="Livello_1" data-name="Livello 1"><path class="cls-1" d="M244.14,161.22c0-14.53-8.16-23-18.43-28.7l-7.8-4.25c-4.6-2.49-8.5-6.38-8.5-11.34,0-5.67,4.61-9.57,11.34-9.57,4.61,0,8.85,1.77,12,3.19,5,2.48,8.16-.71,9.57-6,1.78-6-.71-8.15-5-10.28a38,38,0,0,0-16.29-3.54c-16.66,0-30.48,11-30.48,28.7,0,13.82,7.08,21.61,18.43,28L217.2,152c5,2.83,8.16,6.73,8.16,12,0,6.74-6.38,9.92-12.76,9.92-5,0-11-2.12-14.18-3.54-5.31-2.48-8.14.71-9.92,6.38-1.76,6,1.07,8.51,5.67,10.63,4.25,2.13,11.7,3.9,18.43,3.9,17.36,0,31.54-11.7,31.54-30.12m-62-3.55V98.86c0-5-5-7.44-9.57-7.44-5,0-9.57,2.48-9.57,7.44V155.2c0,11.34-3.54,18.77-12.75,18.77-8.86,0-13.11-7.08-13.11-18.77V98.86c0-5-5.32-7.44-9.93-7.44-5.31,0-9.92,2.48-9.92,7.44v58.46c0,23.39,11.7,34,33,34,19.13,0,31.89-11,31.89-33.67m-74.06,4.26c0-16.3-11.33-22.33-17.36-23.39v-.35c7.08-3.55,15.59-10.28,15.59-22.33,0-16.29-14.17-24.09-28-24.09H51.73c-5,0-7.79,3.9-7.79,8.15v82.91c0,5,5,7.45,9.57,7.45H78.66c15.24,0,29.41-8.16,29.41-28.35M86.46,120.47c0,9.21-7.8,12.4-15.95,12.4H63.07v-24.8h7.44c8.5,0,15.95,2.83,15.95,12.4m2.83,39.33C89.29,169.37,84,174,72.64,174H64.13V146.34h8.51c7.08,0,16.65,2.48,16.65,13.46"/><rect class="cls-1" width="283.46" height="18.43" rx="9.21"/><rect class="cls-1" y="265.04" width="283.46" height="18.43" rx="9.21"/></g></g></svg>