<svg xmlns="http://www.w3.org/2000/svg" viewBox="0 0 283.46 283.46"><defs><style>.cls-1{fill:#1d1d1b;}</style></defs><title>Tram</title><g id="Calque_2" data-name="Calque 2"><g id="Livello_1" data-name="Livello 1"><rect class="cls-1" width="283.46" height="18.43" rx="9.21"/><rect class="cls-1" y="265.04" width="283.46" height="18.43" rx="9.21"/><path class="cls-1" d="M251.15,235.84H28.35v-11.9h222.8a4,4,0,0,1,4,4v4a4,4,0,0,1-4,4"/><path class="cls-1" d="M28.35,212.6h185.7a41.55,41.55,0,0,0,37.54-23.41,35.42,35.42,0,0,0,3.17-20.56,111.89,111.89,0,0,0-28.41-60.39,27.67,27.67,0,0,0-20.43-9h-98L128.47,82.3a5,5,0,0,0,0-7.66L92.33,45a3.21,3.21,0,0,0-4.52.44l-2,2.48a3.22,3.22,0,0,0,.44,4.53L118,78.47,92.72,99.21H28.35V112H69.59a2,2,0,0,1,2,2V168.8a2,2,0,0,1-2,2H28.35Zm188.48-95.88a99.3,99.3,0,0,1,22.94,41.9c1.77,6.7-2.36,12.17-9.3,12.17H171.35a2,2,0,0,1-2-2V114a2,2,0,0,1,2-2h34.57a14.79,14.79,0,0,1,10.91,4.75m-62.2,83.12H128.84a2,2,0,0,1-2-2V114a2,2,0,0,1,2-2h25.79a2,2,0,0,1,2,2v83.91a2,2,0,0,1-2,2M86.31,112h25.8a2,2,0,0,1,2,2v83.91a2,2,0,0,1-2,2H86.31a2,2,0,0,1-2-2V114a2,2,0,0,1,2-2"/></g></g></svg>