<?xml version="1.0" encoding="utf-8"?>
<svg xmlns="http://www.w3.org/2000/svg" viewBox="0 0 283.46 283.47">
  <defs>
    <style>.cls-1{fill:#1d1d1b;}</style>
  </defs>
  <title>Fichier 1</title>
  <g id="Calque_2" data-name="Calque 2">
    <g id="Livello_1" data-name="Livello 1">
      <path class="cls-1" d="M212.25,205.15V81.5c0-7.09-3.9-14.53-15.6-14.53-8.85,0-12.4,3.9-16.29,11.69l-38.27,79.73h-.35L103.11,78.66C99.21,70.87,95.67,67,86.81,67,75.12,67,71.22,74.41,71.22,81.5V205.15c0,6.74,5.32,10.64,11.7,10.64,5.66,0,12-3.9,12-10.64V113h.36L130.4,184.6c2.47,5,5.67,7.8,11.34,7.8s8.85-2.84,11.33-7.8L188.15,113h.36v92.12c0,6.74,6.37,10.64,12.05,10.64,6.37,0,11.69-3.9,11.69-10.64"/>
      <path class="cls-1" d="M141.73,0A141.74,141.74,0,1,0,283.46,141.73,141.74,141.74,0,0,0,141.73,0Zm0,265A123.31,123.31,0,1,1,265,141.73,123.3,123.3,0,0,1,141.73,265Z"/>
    </g>
  </g>
</svg>