<svg width="443" height="254" viewBox="0 0 443 254" fill="none" xmlns="http://www.w3.org/2000/svg">
<path d="M402.592 170.698V214.274C402.592 225.758 393.267 235.068 381.766 235.068C370.264 235.068 360.94 225.758 360.94 214.274V0H320.531V250.275H443V170.574H402.592V170.698ZM99.0942 213.901C99.0942 225.571 89.8924 235.377 78.3295 235.377C66.7051 235.242 57.3721 225.756 57.4419 214.149V170.574H17.0337V206.701C17.0337 224.826 32.9476 254 78.2052 254C123.463 254 139.378 231.654 139.378 206.701V0H99.0942V213.901ZM250.781 0H169.963V250.275H250.781C280.993 250.275 291.189 230.289 291.189 217.501V142.643C291.189 131.966 280.496 118.061 264.581 118.061C280.496 118.061 291.189 95.9644 291.189 83.5501V40.8435C291.189 13.1603 266.322 0 250.781 0ZM234.866 229.916H210.371V128.986H234.866C250.781 128.986 250.781 140.531 250.781 179.761C250.781 218.991 250.781 229.916 234.866 229.916ZM232.379 107.882L210.371 107.758V23.7115H232.379C247.174 23.7115 250.781 26.8157 250.781 66.0457C250.781 105.274 247.174 107.882 232.379 107.882ZM37.3 143.387C50.4463 143.624 61.2971 133.176 61.5373 120.051C61.7761 106.924 51.3134 96.0885 38.1671 95.8472C25.0207 95.6073 14.1671 106.053 13.9255 119.179V119.552C13.7873 132.578 24.2527 143.251 37.3 143.387ZM74.5999 0H0L37.3 86.5288L74.5999 0Z" fill="#FF4713"/>
</svg>
