<svg xmlns="http://www.w3.org/2000/svg" width="114" height="60" viewBox="0 0 55 29" id="Harman-primary" y="620"><title>196EC8F1-1418-4BEB-B379-EC2639EC0D28@3x</title><defs><path id="a" d="M.025.013H45.64v28.614H.025z"/></defs><g fill="none" fill-rule="evenodd"><path d="M5.393 12.992v3.305H1.554v-3.305H0v7.441h1.554v-3.469h3.84l-.003 2.67c0 .167.034.305.1.412a.734.734 0 0 0 .247.243.962.962 0 0 0 .316.116c.111.019.209.028.298.028h.596v-7.44H5.393M35.773 20.433v-7.44h-1.52l-3.042 5.51-3.102-5.51h-1.538v7.44h.792v-5.77l3.266 5.77h.405l3.18-5.726v4.924c0 .169.036.307.102.413a.736.736 0 0 0 .246.244.935.935 0 0 0 .316.115c.11.02.208.03.3.03h.595M45.521 20.433l-3.885-7.606h-.456l-3.98 7.606h.908l1.237-2.366h2.822l-.39-.759h-2.035l1.308-2.5 2.567 5.033c.1.207.227.36.375.453.149.095.344.139.58.139h.95" fill="#838383"/><g transform="translate(8.378)"><mask id="b" fill="#fff"><use xmlns:xlink="http://www.w3.org/1999/xlink" xlink:href="#a"/></mask><path d="M45.229 12.992a.87.87 0 0 0-.143.012.491.491 0 0 0-.157.058.372.372 0 0 0-.128.126.392.392 0 0 0-.053.211v4.797l-5.174-5.204h-.997v7.44h.907v-5.61l5.25 5.426c.214.201.51.185.798.185h.108v-7.441h-.411M28.818 4.623c-3.477-.296-7.439.12-10.088.658-3.23.656-6.243 1.57-9.088 2.815-.65.285-1.272.596-1.892.927a44.747 44.747 0 0 1 6.545-4.106C20.93 1.539 27.89.259 31.175 2.712c.907.676 1.425 1.556 1.612 2.587a23.342 23.342 0 0 0-3.969-.676zM6.535 10.007s1.811-1.029 3.167-1.605c3.343-1.42 6.285-2.253 8.996-2.766 2.188-.415 8.864-1.452 14.155.205.084 1.233-.252 2.648-.93 4.166h2.171c.535-1.121.898-2.198 1.065-3.206a9.524 9.524 0 0 1 2.227 1.638c.605.606 1.19 1.568 1.19 1.568h.96s-.41-.925-1.315-1.847c-.84-.856-1.883-1.506-2.981-2.001.164-1.96-.48-3.618-2.124-4.765C29.186-1.35 21.386.227 14.2 4.079a46.811 46.811 0 0 0-8.56 5.928h.895zM4.467 12.827h-.455L.025 20.432h.908l2.949-5.625 1.275 2.501H3.11l-.395.759h2.832l.896 1.775c.1.207.227.36.375.453.15.095.344.138.58.138h.957l-3.889-7.606M27.512 24.414h-.592c-3.912 1.636-8.441 2.713-13.004 2.894 1.962-.698 4.038-1.667 6.126-2.894h-1.958c-2.064 1.18-4.106 2.092-6.013 2.71-.209.067-.415.13-.619.19-3.319-.124-5.952-.872-7.78-2.018a8.142 8.142 0 0 1-1.16-.882h-.397c.406.42.883.814 1.437 1.171 1.614 1.042 3.855 1.781 6.646 2.06-2.563.593-4.652.548-6.186.031-1.535-.517-2.68-1.502-3.1-2.797a4.782 4.782 0 0 1-.124-.465h-.25c.04.202.089.4.15.59.463 1.441 1.73 2.547 3.37 3.139 1.95.705 4.778.703 8.339-.34l.114-.035c4.754.045 10.145-1.076 15-3.354" fill="#838383" mask="url(#b)"/></g><path d="M19.746 13.645v2.819h.719s.714.01 1.177-.256c.464-.265.792-.635.792-1.187 0-.553-.354-1.043-.854-1.235 0 0-.287-.14-.798-.14h-1.036zm3.092 6.19l-2.292-2.804h-.797v3.4h-1.554v-7.44h2.853s1.178-.018 1.949.368c.77.385 1.097.927 1.097 1.615 0 .687-.412 1.499-1.886 1.907l2.97 3.551h-1.191s-.25.002-.542-.097c-.292-.1-.607-.5-.607-.5z" fill="#838383"/></g></svg>