<svg xmlns:xlink="http://www.w3.org/1999/xlink"  xmlns="http://www.w3.org/2000/svg" class="logo-CdiscountRebranding--svg" width="186" height="40" viewBox="0 0 757 175" fill="none" role="img" aria-label="cdiscount.com"><title>Cdiscount.com</title><g><path fill="white" d="M164.139 67.0183C158.988 90.0976 152.42 110.234 146.587 125.757C144.787 110.512 143.173 95.4146 141.548 80.2238C139.85 64.3384 138.14 48.3511 136.196 31.9866L116.293 34.4453C116.614 37.6984 116.968 40.9496 117.321 44.2011C118.238 52.6296 119.155 61.0599 119.506 69.5308C82.0691 90.8155 69.1297 116.73 69.2732 133.977C40.9999 145 13.9999 129.5 21.4456 99.6272C28.8458 75.2305 58.8587 68.5045 80.6155 75.9736L87.148 57.0041C54.6424 45.8091 13.4998 58 2.27867 93.7766C-10.5002 141 34.4998 170 76.9364 152.57C94.9998 166.5 118.5 153.5 127.635 136.166C129.663 153.198 131.063 164.755 131.117 165.042L149.943 168.488C150.481 167.465 158.827 151.475 168.069 125.506C169.146 140.097 170.097 152.821 170.384 156.554L190.377 155.028C189.605 144.871 183.934 68.4002 183.934 68.4002L164.139 67.0183ZM90.0912 137.494C84.9998 120 111.272 98.8231 119.506 93.1664C120 108.5 109.5 142.5 90.0912 137.494ZM164.398 32.4848L164.065 53.3726L184.11 53.6913L184.442 32.8036L164.398 32.4848ZM401.68 137.979C411.5 135 407.5 78 402.416 60.7188L421.834 55.6579C427.95 79.452 439 157.989 401.5 157.989C371.318 157.678 369.985 112.812 370.112 91.7305C367.563 93.1303 364.925 94.261 362.215 95.1044C362.683 117.325 357 158.169 328.906 158.258C318.5 157.989 313.769 153.493 310.009 145.606C303.997 152.013 295.454 158.169 284.255 158.169C267.33 158.169 253.805 145.394 248.29 130.046C239.12 147.526 201.45 156.679 199.835 157.056L195.187 137.548C211.913 133.582 225.803 126.152 229.662 121.97C225.741 117.95 220.381 114.653 214.945 111.311C203.523 104.287 191.769 97.0581 192.333 82.4701C193.553 65.3311 214.012 55.1015 235.961 46.5948L243.212 65.2952C215.017 76.2067 212.451 82.2726 212.343 83.8699C216.631 88.144 222.849 92.3549 228.859 96.4252C234.985 100.573 240.895 104.575 244.324 108.349C243.348 86.019 250.628 50.3325 278.871 49.3586C293.265 48.8561 304.194 59.319 305.396 60.5214L291.308 74.8069C289.675 73.2276 284.417 69.2255 279.464 69.405C260 71.5 257.5 133 280.774 137.656C290.645 140.296 296.854 130.848 301.846 123.253C302.651 122.028 303.424 120.851 304.176 119.781C302.5 98 306 52.5 332.514 52.3378C343.73 52.3378 358.449 62.5686 360.51 74.1787C365.941 71.1241 369.758 65.9629 372.947 60.7368L391.486 66.9463C389.5 78 388.5 138.5 401.68 137.979ZM328.314 79.7063C322.432 95.3013 321.5 122 328.709 138.23C339.5 137.656 342.479 104.675 342.115 94.3327C336.404 91.1562 331.542 85.355 328.314 79.7063ZM487.464 113.338L454.694 50.7407L435.778 55.5325L437.25 156.41L457.314 156.123L456.453 97.33L488.613 158.761L507.529 154.113V65.2416H487.464V113.338ZM489.456 33.4224L565.855 35.235L565.388 55.2813L539.545 54.6711C539.93 69.7236 540.412 84.7734 540.894 99.8232C541.502 118.821 542.111 137.82 542.524 156.823L522.478 157.272C522.059 138.955 521.474 120.643 520.889 102.332C520.376 86.2843 519.864 70.2371 519.463 54.1865L488.972 53.4687L489.456 33.4224Z"></path><path fill="white" d="M663.018 26.477L553.795 72.51L560.866 89.3079L564.15 87.9261L563.827 121.522L587.516 119.602L582.33 154.508L597.315 162.727L643.564 122.617L637.426 115.528L688.053 111.4C680.084 82.9797 671.61 54.715 663.018 26.477ZM603.956 132.828L606.145 118.076L622.512 116.748L603.956 132.828ZM582.24 101.745L582.456 80.209L651.46 51.1356C654.762 62.083 660.218 80.3167 664.489 95.0508L582.24 101.745Z"></path><path fill="white" d="M703.02 6C702.841 6.14357 685.217 21.0572 677.967 26.6565L689.112 41.0676C696.667 35.217 714.039 20.5367 714.775 19.9086L703.02 6Z"></path><path fill="white" d="M750.465 27.9915L696.363 48.7606L702.898 65.7836L757 45.0145L750.465 27.9915Z"></path><path fill="white" d="M701.118 95.1228C711.025 92.6103 721.254 91.4079 731.448 91.5874L731.771 73.3716C719.944 73.1921 708.135 74.5381 696.649 77.4634L701.118 95.1228Z"></path></g></svg>